<svg xmlns="http://www.w3.org/2000/svg" viewBox="0 0 20 20"><path fill="#191717" d="M9.995-.11C4.412-.11-.11 4.418-.11 9.995c0 4.467 2.897 8.25 6.91 9.59.503.094.69-.217.69-.49 0-.241-.007-.874-.013-1.718-2.81.608-3.406-1.352-3.406-1.352-.459-1.166-1.123-1.476-1.123-1.476-.918-.627.068-.615.068-.615 1.012.075 1.551 1.043 1.551 1.043.9 1.544 2.364 1.098 2.94.837.094-.651.354-1.098.64-1.352-2.246-.255-4.603-1.123-4.603-4.994 0-1.104.39-2.004 1.042-2.71-.106-.255-.453-1.285.1-2.675 0 0 .85-.272 2.778 1.036a9.807 9.807 0 0 1 2.531-.34 9.843 9.843 0 0 1 2.531.34c1.93-1.308 2.78-1.036 2.78-1.036.551 1.39.204 2.42.099 2.674.645.707 1.035 1.607 1.035 2.711 0 3.883-2.363 4.733-4.615 4.988.36.31.689.93.689 1.873 0 1.352-.013 2.438-.013 2.773 0 .273.18.583.695.484 4.014-1.34 6.905-5.124 6.905-9.584C20.1 4.418 15.578-.11 9.995-.11z"/></svg>